<svg xmlns="http://www.w3.org/2000/svg" width="742.753" height="742.753" viewBox="0 0 557.065 557.065"><path style="stroke:none;fill-rule:nonzero;fill:#636363;fill-opacity:1" d="M135.848 206.352c-4.887 9.359-12.715 17.152-22.098 21.996L235.066 350.14l29.25-14.825zm160.023 160.64-29.25 14.824 61.473 61.711c4.886-9.359 12.719-17.156 22.105-21.996zm0 0"/><path style="stroke:none;fill-rule:nonzero;fill:#878787;fill-opacity:1" d="m436.234 254.543-68.68 34.809 5.063 32.39 77.711-39.383c-7.39-7.543-12.387-17.398-14.094-27.816zM327.68 309.559l-162.39 82.3c7.39 7.54 12.386 17.395 14.093 27.817l153.363-77.727zm0 0"/><path style="stroke:none;fill-rule:nonzero;fill:#636363;fill-opacity:1" d="m275.457 106.828-78.36 152.977 23.133 23.226 82.97-161.969c-10.41-1.761-20.243-6.804-27.743-14.234zm-98.742 192.766-39.692 77.488c10.41 1.758 20.239 6.805 27.743 14.23l35.086-68.496zm0 0"/><path style="stroke:none;fill-rule:nonzero;fill:#5c5c5c;fill-opacity:1" d="M113.074 228.688a51.922 51.922 0 0 1-25.808 5.398 52.012 52.012 0 0 1-4.989-.524l23.176 148.247a51.976 51.976 0 0 1 25.813-5.395c1.668.094 3.332.266 4.984.52zm0 0"/><path style="stroke:none;fill-rule:nonzero;fill:#575757;fill-opacity:1" d="M179.508 420.41c.527 3.438.71 6.93.539 10.406a51.888 51.888 0 0 1-5.45 20.387l148.22 23.781a51.814 51.814 0 0 1-.54-10.406 51.852 51.852 0 0 1 5.45-20.383zm0 0"/><path style="stroke:none;fill-rule:nonzero;fill:#878787;fill-opacity:1" d="m450.852 282.898-68.414 133.563c10.41 1.762 20.242 6.805 27.742 14.238l68.414-133.562c-10.41-1.762-20.242-6.805-27.742-14.239zm0 0"/><path style="stroke:none;fill-rule:nonzero;fill:#ccc;fill-opacity:1" d="M357.543 93.996c-4.887 9.363-12.719 17.156-22.106 22l105.95 106.36c4.886-9.36 12.718-17.157 22.101-22zm0 0"/><path style="stroke:none;fill-rule:nonzero;fill:#8f8f8f;fill-opacity:1" d="m260.84 78.473-133.93 67.875c7.39 7.539 12.383 17.394 14.094 27.812l133.93-67.875c-7.391-7.539-12.387-17.394-14.094-27.812zm74.355 37.648a52.01 52.01 0 0 1-26.238 5.61 51.5 51.5 0 0 1-4.52-.473l11.864 75.969 32.37 5.191zm-12 125.27 28.051 179.613a51.909 51.909 0 0 1 25.434-5.211c1.812.105 3.617.3 5.406.594l-26.52-169.805zm0 0"/><path style="stroke:none;fill-rule:nonzero;fill:#ababab;fill-opacity:1" d="M141.098 174.73a51.84 51.84 0 0 1 .57 10.575 51.878 51.878 0 0 1-5.371 20.234l76.027 12.211 14.942-29.18zm130.304 20.926-14.945 29.184 179.633 28.85a51.828 51.828 0 0 1-.52-10.289 51.863 51.863 0 0 1 5.512-20.492zm0 0"/><path style="stroke:none;fill-rule:nonzero;fill:#c2c2c2;fill-opacity:.995968" d="M358.672 72.691c-1.414 25.907-23.555 45.762-49.461 44.348-25.902-1.41-45.758-23.55-44.348-49.457 1.414-25.902 23.555-45.758 49.461-44.348 25.903 1.414 45.758 23.555 44.348 49.457zm0 0"/><path style="stroke:none;fill-rule:nonzero;fill:#b3b3b3;fill-opacity:.995968" d="M534.066 248.766c-1.41 25.906-23.554 45.761-49.457 44.347-25.906-1.41-45.761-23.55-44.347-49.457 1.41-25.902 23.55-45.758 49.457-44.347 25.902 1.41 45.758 23.554 44.347 49.457zm0 0"/><path style="stroke:none;fill-rule:nonzero;fill:#7d7d7d;fill-opacity:.995968" d="M420.773 469.941c-1.414 25.903-23.554 45.758-49.457 44.348-25.906-1.41-45.761-23.555-44.351-49.457 1.414-25.902 23.555-45.758 49.46-44.348 25.903 1.41 45.759 23.555 44.348 49.457zm0 0"/><path style="stroke:none;fill-rule:nonzero;fill:#4a4a4a;fill-opacity:.995968" d="M175.355 430.563c-1.41 25.902-23.55 45.757-49.457 44.347-25.902-1.414-45.757-23.555-44.347-49.457 1.414-25.906 23.554-45.762 49.457-44.351 25.906 1.414 45.762 23.554 44.347 49.46zm0 0"/><path style="stroke:none;fill-rule:nonzero;fill:#4d4d4d;fill-opacity:.995968" d="M136.977 185.047c-1.41 25.902-23.555 45.758-49.457 44.348-25.907-1.41-45.758-23.555-44.348-49.458 1.41-25.902 23.555-45.757 49.457-44.347 25.902 1.41 45.758 23.555 44.348 49.457zm0 0"/></svg>