<?xml version="1.0" encoding="UTF-8" standalone="no"?>
<svg
   xmlns:dc="http://purl.org/dc/elements/1.1/"
   xmlns:cc="http://creativecommons.org/ns#"
   xmlns:rdf="http://www.w3.org/1999/02/22-rdf-syntax-ns#"
   xmlns:svg="http://www.w3.org/2000/svg"
   xmlns="http://www.w3.org/2000/svg"
   xmlns:sodipodi="http://sodipodi.sourceforge.net/DTD/sodipodi-0.dtd"
   xmlns:inkscape="http://www.inkscape.org/namespaces/inkscape"
   data-name="Layer 1"
   viewBox="0 0 100 125"
   x="0px"
   y="0px"
   id="svg2"
   version="1.1"
   inkscape:version="0.91 r13725"
   sodipodi:docname="profile.svg">
  <metadata
     id="metadata24">
    <rdf:RDF>
      <cc:Work
         rdf:about="">
        <dc:format>image/svg+xml</dc:format>
        <dc:type
           rdf:resource="http://purl.org/dc/dcmitype/StillImage" />
      </cc:Work>
    </rdf:RDF>
  </metadata>
  <defs
     id="defs22" />
  <sodipodi:namedview
     pagecolor="#ffffff"
     bordercolor="#666666"
     borderopacity="1"
     objecttolerance="10"
     gridtolerance="10"
     guidetolerance="10"
     inkscape:pageopacity="0"
     inkscape:pageshadow="2"
     inkscape:window-width="640"
     inkscape:window-height="480"
     id="namedview20"
     showgrid="false"
     inkscape:zoom="1.888"
     inkscape:cx="50"
     inkscape:cy="62.5"
     inkscape:window-x="0"
     inkscape:window-y="36"
     inkscape:window-maximized="0"
     inkscape:current-layer="svg2" />
  <title
     id="title4">47 all</title>
  <g
     id="g6">&quot;&gt;<g
   id="g8">&quot;&gt;<path
   d="M77.74,83.19H22.26V76.47a24,24,0,0,1,24-24h7.48a24,24,0,0,1,24,24Zm-51.48-4H73.74V76.47a20,20,0,0,0-20-20H46.26a20,20,0,0,0-20,20Z"
   id="path10" />
</g>
<g
   id="g12">&quot;&gt;<path
   d="M50,50.5A16.85,16.85,0,1,1,66.85,33.66,16.87,16.87,0,0,1,50,50.5Zm0-29.7A12.85,12.85,0,1,0,62.85,33.66,12.86,12.86,0,0,0,50,20.81Z"
   id="path14" />
</g>
</g>
</svg>
