<svg id="acaf7998-b12f-450b-972e-34e26f1defdd" data-name="Layer 1" xmlns="http://www.w3.org/2000/svg" width="797" height="667" viewBox="0 0 797 667"><title>just_saying</title><ellipse cx="125" cy="160" rx="121" ry="114" fill="#f1f1f1"/><path d="M901.38932,668.92011q-33.42034-5.662-64.281-9.725l8.13329-15.76933c-2.74256-.95255-14.79194,8.07809-14.79194,8.07809l10.67364-45.77459c-13.79337,1.66343-20.80642,48.40207-20.80642,48.40207l-15.41077-15.802,7.46085,17.76562c-62.968-7.41544-117.34916-10.165-163.09014-10.26406l6.9613-13.4969c-2.74256-.95255-14.79194,8.07809-14.79194,8.07809l10.67364-45.77459c-13.79337,1.66343-20.80642,48.40207-20.80642,48.40207l-15.41077-15.802,7.90222,18.8167a916.11979,916.11979,0,0,0-93.75366,6.36833c7.041-21.02573,30.95992-41.02287,30.95992-41.02287-18.2667,5.43279-27.84858,14.53661-32.85538,23.024A368.6714,368.6714,0,0,1,549.46489,507.0429S511.70827,589.2047,516.526,644.35514l.57623,9.79313C485.09307,658.73155,469.00033,663.5,469.00033,663.5Z" transform="translate(-201.5 -116.5)" fill="#3f3d56"/><path d="M998.5,698.5c0,25.4051-150.43232,85-336,85s-336-59.5949-336-85,150.43232-7,336-7S998.5,673.0949,998.5,698.5Z" transform="translate(-201.5 -116.5)" fill="#3f3d56"/><path d="M998.5,698.5c0,25.4051-150.43232,85-336,85s-336-59.5949-336-85,150.43232-7,336-7S998.5,673.0949,998.5,698.5Z" transform="translate(-201.5 -116.5)" opacity="0.1"/><ellipse cx="461" cy="582" rx="336" ry="46" fill="#3f3d56"/><path d="M666.16091,175.29009c-5.80608,17.19032-14.70892,32.85328-32.85329,32.85328s-31.831-14.73774-32.85328-32.85328c-1.30634-23.148,14.29036-32.94917,32.85328-32.85329C655.23671,142.55007,673.05132,154.88935,666.16091,175.29009Z" transform="translate(-201.5 -116.5)" fill="#2f2e41"/><rect x="404.70287" y="54.41965" width="53.73724" height="78.31352" fill="#2f2e41"/><polygon points="389.032 221.109 391.762 241.582 455.228 237.487 451.816 219.061 389.032 221.109" fill="#a0616a"/><path d="M620.55929,216.81746s8.18923,22.52039-7.50679,25.93257,2.72974,18.42577,2.72974,18.42577l24.5677-1.36487,17.0609-4.777,5.45949-9.55411s-21.15552-10.919-15.01359-27.97988Z" transform="translate(-201.5 -116.5)" fill="#a0616a"/><path d="M620.55929,216.81746s8.18923,22.52039-7.50679,25.93257,2.72974,18.42577,2.72974,18.42577l24.5677-1.36487,17.0609-4.777,5.45949-9.55411s-21.15552-10.919-15.01359-27.97988Z" transform="translate(-201.5 -116.5)" opacity="0.1"/><path d="M668.32982,306.21658l1.36487,51.86514a49.00227,49.00227,0,0,0,14.33116,17.06091C693.58,381.967,720.195,391.52109,720.195,391.52109s24.5677,30.02719,27.97988,9.55411-21.15552-23.20283-21.15552-23.20283-30.70962-24.5677-32.75693-29.34475-4.09462-34.80424-3.41218-41.6286S668.32982,306.21658,668.32982,306.21658Z" transform="translate(-201.5 -116.5)" fill="#a0616a"/><polygon points="387.667 459.961 404.046 540.489 421.107 537.759 417.012 459.961 387.667 459.961" fill="#a0616a"/><polygon points="465.465 457.232 499.587 523.428 515.283 517.968 497.539 442.9 465.465 457.232" fill="#a0616a"/><path d="M578.93069,301.43953l-4.77705,45.04078-55.95976,51.86514s-37.534,23.20283-17.0609,27.97988,30.02719-19.10821,30.02719-19.10821L591.897,366.271s2.72974-60.05438,0-62.78412S578.93069,301.43953,578.93069,301.43953Z" transform="translate(-201.5 -116.5)" fill="#a0616a"/><path d="M664.2352,243.43246s-16.37846,9.55411-32.75693,6.14193-19.10821-8.18924-19.10821-8.18924-21.15552,3.41219-23.20283,11.60142,0,20.47308,0,20.47308-18.42577,19.79065-2.72974,43.67591l3.41218,27.97988s46.40565-6.82436,57.32463,0,14.33116,1.36487,14.33116,1.36487l7.50679-33.43937,23.88527-52.54757s0-6.82437-12.96629-10.919S664.2352,243.43246,664.2352,243.43246Z" transform="translate(-201.5 -116.5)" fill="#424056"/><path d="M684.02585,254.35144l8.87167,6.82436s8.87167,48.453,1.36487,49.81783-32.0745,4.77706-32.0745,0S684.02585,254.35144,684.02585,254.35144Z" transform="translate(-201.5 -116.5)" fill="#424056"/><path d="M593.94428,250.25682h-4.77705s-16.37846,11.60142-19.10821,24.5677-10.23654,26.615-4.09461,27.97988,24.56769,6.82436,27.29744,4.77705S593.94428,250.25682,593.94428,250.25682Z" transform="translate(-201.5 -116.5)" fill="#424056"/><path d="M658.34852,348.54781l-67.81642-.02019-2.72974,10.23654S490.89644,527.32587,505.91,543.70434s18.42577,5.45949,21.838,16.37846,24.56769,34.12181,38.21642,32.0745,55.95975-10.23654,80.52745,0,86.66938-15.696,86.66938-23.88526-73.02066-210.19032-73.02066-210.19032Z" transform="translate(-201.5 -116.5)" fill="#2f2e41"/><path d="M623.97147,650.8468l-23.20282,6.14193s7.50679,15.01359,0,22.52039-15.696,27.97988-3.41218,28.66231,25.25013-7.50679,25.25013-7.50679v-7.5068h6.14192l6.14193-3.41218s-.68244-12.28385,0-14.33116-3.41218-18.42577-6.14193-18.42577S623.97147,650.8468,623.97147,650.8468Z" transform="translate(-201.5 -116.5)" fill="#2f2e41"/><path d="M718.83009,629.69128l-23.88527,7.5068s10.919,32.0745,10.23655,37.534-1.36488,34.12181,11.60141,33.43937,18.42577-14.33116,19.10821-15.696-2.72975-12.96628-2.72975-12.96628l2.72975-4.09462,2.04731-2.72974s-1.36487-3.41218-4.77706-12.96629-9.5541-11.60141-9.5541-11.60141Z" transform="translate(-201.5 -116.5)" fill="#2f2e41"/><circle cx="431.80762" cy="19.88488" r="12.9684" fill="#2f2e41"/><path d="M617.74554,129.4684a12.96894,12.96894,0,0,1,11.67156-12.90291c-.42663-.04238-.859-.06549-1.29684-.06549a12.9684,12.9684,0,1,0,0,25.9368c.43782,0,.87021-.02311,1.29684-.06548A12.969,12.969,0,0,1,617.74554,129.4684Z" transform="translate(-201.5 -116.5)" fill="#2f2e41"/><circle cx="432.70801" cy="85.30386" r="28.66232" fill="#a0616a"/><path d="M623.76833,166.21347s-.27079-1.50743-10.86143,2.46406-16.939,33.27935-11.64368,50.48914c2.134,6.93548.398,11.936-2.43531,15.43471-10.63244,13.1294-6.44689,32.8494,9.04007,39.601q.65571.28586,1.33822.56516l6.61915,3.97149s-8.438-11.10262-4.2153-25.30492a72.81679,72.81679,0,0,0,1.314-37.27724c-.48446-2.07983-1.03476-4.22374-1.65987-6.41161-5.29532-18.53362-2.7199-16.39326,15.81372-34.92689,0,0,10.59064,7.943,19.85745,11.91447s17.20979,7.943,10.59064,21.18129-22.50511,25.15277-11.91447,42.36256,11.91447,10.59064,10.59064,17.20979h0l-1.32383,6.61915,7.943-7.943L657.526,276.75328s17.20979,0,22.50511-13.2383l2.64766,2.64766s10.59064-18.53362-9.26681-35.74341c0,0-6.61915-3.97149,2.64766-17.20979s2.14979-41.70065-9.76468-46.996S623.76833,166.21347,623.76833,166.21347Z" transform="translate(-201.5 -116.5)" fill="#2f2e41"/><path d="M510.12109,416.21924,410.01953,386.37549A152.88041,152.88041,0,0,1,343.5,401.5c-78.29932,0-142-58.31787-142-130s63.70068-130,142-130,142,58.31787,142,130c0,36.18652-16.61328,70.9126-45.62451,95.4751Zm-100.27832-31.9834.37452.11133,88.66162,26.43359-62.29053-43.66748,1.00732-.83691C466.76855,342.05029,483.5,307.50537,483.5,271.5c0-70.57959-62.80371-128-140-128s-140,57.42041-140,128,62.80371,128,140,128a150.82312,150.82312,0,0,0,65.9917-15.09229Z" transform="translate(-201.5 -116.5)" fill="#2f2e41"/><circle cx="94.5" cy="162.5" r="11" fill="#424056"/><circle cx="126.5" cy="162.5" r="11" fill="#424056"/><circle cx="158.5" cy="162.5" r="11" fill="#424056"/></svg>