<svg height="100px" width="100px" fill="#000000" version="1.0" xmlns="http://www.w3.org/2000/svg" xmlns:xlink="http://www.w3.org/1999/xlink" x="0px" y="0px" viewBox="0 0 100 84.922" enable-background="new 0 0 100 84.922" xml:space="preserve"><path d="M50.29,42.212"/><path d="M50.29,42.212"/><path d="M50.29,42.212"/><path d="M95.223,22.145c-5.377,3.135-8.271,4.414-13.844,4.125c-2.098-0.024-3.207-0.917-5.281-0.724  c-1.93,0.072-2.918,0.796-4.849,1.447c-2.966,0.917-4.583,1.737-7.694,2.702c-1.977,0.555-3.23,0.579-5.281,1.278  c-1.76,0.748-0.916,0.145-2.146,1.567c-1.592,1.761-1.206,3.136-2.701,6.15c-1.856,3.956-1.641,4.486-0.579,4.969  c-0.699,2.025-0.867,3.377-0.699,5.571c0.192,1.664-0.506,2.821,1.278,4.147c2.437,1.81,7.55,6.054,8.853,6.125  c1.953-0.071,7.646,0.146,10.539-1.855c0.652-0.41,0.845-0.82,0.289,0.725c-0.119,0.192-7.211,5.715-7.982,5.69  c-5.463,0.176-6.511,0.431-6.611,0.556c-0.628-0.243-4.812-5.237-7.377-3.402c-0.99,0.604-1.448,1.183-1.835,2.269  c0.338,0.699,1.931,1.81,3.4,2.726c2.123,1.352,2.315,2.772,4.438,3.281c2.58,0.577,5.33,0.191,6.969,0.408  c0.629,0.169,6.32-1.495,9.865-3.4c3.28-1.688-4.51,3.256-6.416,5.692c-5.74,1.81-4.123,1.882-6.85,2.437  c-2.532,0.578-2.412,0.434-4.148,0.988c-1.785,0.434-3.256,2.87-1.566,4.147c1.013,0.845,4.173-0.337,7.283-0.435  c1.375-0.022,6.994-2.604,8.272-3.279c3.185-1.713,5.522-4.076,7.404-5.428c2.604-1.807-2.942,4.994-5.282,7.84  c-0.675,0.918-0.988,1.109-1.832,2.291c-1.398,1.811,0.385,4.56,1.277,4.125c1.037-0.385,1.713-2.459,2.846-3.135  c0.58-0.314,2.123-2.582,3.57-4.125c1.061-1.205,1.833-1.736,2.846-2.99c1.713-2.123,2.074-3.738,3.57-6.006  c0.916-1.183,1.566-1.543,2.41-2.99c4.463-8.441,3.16-12.229,7.43-18.258c1.303-1.785,2.773-2.22,4.848-3.281  C101.566,30.031,95.175,22.169,95.223,22.145z M74.529,44.528c-1.014,3.545-0.916,3.955-2.846,5.281  c-2.34,1.785-2.461,0.434-7.838,3.425c0,0-2.22-2.315-5.717-3.425c0.023,0.049-0.941-4.486-2.846-6.006  c4.533-3.449,4.412-6.366,5.137-6.27c1.616,0.145,4.198,0.965,8.973-0.844C72.143,41.923,75.471,41.657,74.529,44.528z"/><path d="M47.3,18.863c-2.122-1.423-2.339-2.846-4.438-3.304c-2.58-0.627-5.354-0.241-6.971-0.555  c-0.627-0.072-6.318,1.592-9.84,3.425c-3.328,1.761,4.486-3.184,6.416-5.716c5.716-1.712,4.076-1.785,6.85-2.412  c2.508-0.506,2.387-0.362,4.124-0.868c1.761-0.482,3.256-2.895,1.567-4.269c-1.037-0.772-4.172,0.41-7.26,0.434  C36.35,5.696,30.729,8.277,29.451,9c-3.184,1.664-5.523,4.028-7.404,5.282c-2.629,1.906,2.942-4.872,5.282-7.694  c0.675-0.965,0.989-1.158,1.856-2.291c1.352-1.857-0.41-4.607-1.277-4.269c-1.062,0.482-1.736,2.556-3.016,3.28  c-0.458,0.266-2.002,2.533-3.424,4.125c-1.062,1.158-1.834,1.688-2.847,3.015c-1.736,2.05-2.074,3.666-3.569,5.837  c-0.916,1.302-1.592,1.64-2.412,3.135C8.179,27.813,9.457,31.6,5.212,37.533c-1.302,1.905-2.773,2.315-4.848,3.425  c-1.93,14.037,4.438,21.876,4.413,21.828c5.379-3.062,8.249-4.342,13.845-4.147c2.099,0.12,3.208,1.012,5.282,0.866  c1.93-0.119,2.918-0.844,4.848-1.422c2.967-0.988,4.582-1.81,7.549-2.727c2.123-0.604,3.377-0.627,5.428-1.422  c1.76-0.652,0.916-0.049,2.146-1.424c1.567-1.809,1.205-3.184,2.557-6.127c2.002-4.027,1.784-4.558,0.723-4.992  c0.676-2.074,0.869-3.4,0.699-5.571c-0.217-1.688,0.507-2.87-1.277-4.125c-2.437-1.881-7.55-6.126-8.828-6.15  c-1.978,0.024-7.67-0.193-10.564,1.712c-0.65,0.506-0.844,0.917-0.289-0.555c0.121-0.266,7.212-5.789,7.983-5.861  c5.059-0.108,6.332-0.315,6.573-0.429c0.5,0.013,4.804,5.243,7.417,3.42c0.965-0.651,1.447-1.23,1.857-2.267  C50.364,20.817,48.772,19.708,47.3,18.863z M28.318,35.121c2.315-1.712,2.459-0.362,7.838-3.28c0-0.073,2.219,2.243,5.717,3.28  c-0.024,0.024,0.94,4.558,2.846,6.126c-4.535,3.401-4.414,6.32-5.138,6.271c-1.617-0.193-4.197-1.014-8.972,0.725  c-2.774-5.162-6.078-4.873-5.138-7.864C26.484,36.954,26.364,36.52,28.318,35.121z"/></svg>