<?xml version="1.0" encoding="iso-8859-1"?>
<!-- Uploaded to: SVG Repo, www.svgrepo.com, Generator: SVG Repo Mixer Tools -->
<!DOCTYPE svg PUBLIC "-//W3C//DTD SVG 1.1//EN" "http://www.w3.org/Graphics/SVG/1.1/DTD/svg11.dtd">
<svg fill="#000000" version="1.1" id="Capa_1" xmlns="http://www.w3.org/2000/svg" xmlns:xlink="http://www.w3.org/1999/xlink" 
	 width="800px" height="800px" viewBox="0 0 96.24 96.24" xml:space="preserve"
	>
<g>
	<path d="M48.122,0C21.587,0,0.001,21.585,0.001,48.118c0,26.535,21.587,48.122,48.12,48.122c26.532,0,48.117-21.587,48.117-48.122
		C96.239,21.586,74.654,0,48.122,0z M4.857,48.118c0-6.271,1.345-12.227,3.746-17.606l20.638,56.544
		C14.81,80.042,4.857,65.243,4.857,48.118z M48.122,91.385c-4.247,0-8.346-0.623-12.222-1.763L48.88,51.903l13.301,36.433
		c0.086,0.215,0.191,0.411,0.308,0.596C57.992,90.514,53.16,91.385,48.122,91.385z M54.083,27.834
		c2.604-0.137,4.953-0.412,4.953-0.412c2.33-0.276,2.057-3.701-0.277-3.564c0,0-7.007,0.549-11.532,0.549
		c-4.25,0-11.396-0.549-11.396-0.549c-2.332-0.137-2.604,3.427-0.273,3.564c0,0,2.208,0.275,4.537,0.412l6.74,18.469l-9.468,28.395
		L21.615,27.835c2.608-0.136,4.952-0.412,4.952-0.412c2.33-0.275,2.055-3.702-0.278-3.562c0,0-7.004,0.549-11.53,0.549
		c-0.813,0-1.77-0.021-2.784-0.052C19.709,12.611,33.008,4.856,48.122,4.856c11.265,0,21.519,4.306,29.215,11.357
		c-0.187-0.01-0.368-0.035-0.562-0.035c-4.248,0-7.264,3.702-7.264,7.679c0,3.564,2.055,6.582,4.248,10.146
		c1.647,2.882,3.567,6.585,3.567,11.932c0,3.704-1.422,8-3.293,13.986l-4.315,14.421L54.083,27.834z M69.871,85.516l13.215-38.208
		c2.471-6.171,3.29-11.106,3.29-15.497c0-1.591-0.104-3.07-0.292-4.449c3.38,6.163,5.303,13.236,5.301,20.758
		C91.384,64.08,82.732,78.016,69.871,85.516z"/>
</g>
</svg>