<svg xmlns="http://www.w3.org/2000/svg" version="1.1" x="0" y="0" viewBox="0 0 64 64" xml:space="preserve" id="svg4965"><style type="text/css" id="style4919">.st1{opacity:.2}.st2{fill:#231f20}.st6{fill:#e0e0d1}</style><g id="Layer_1"><g id="g4923"><circle cx="32" cy="32" r="32" id="circle4921" fill="#77b3d4"/></g><g id="g4961"><g class="st1" id="g4927"><path class="st2" d="M12 25v25c0 2.2 1.8 4 4 4h32c2.2 0 4-1.8 4-4V25H12z" id="path4925"/></g><g id="g4931"><path d="M12 23v25c0 2.2 1.8 4 4 4h32c2.2 0 4-1.8 4-4V23H12z" id="path4929" fill="#fff"/></g><g class="st1" id="g4935"><path class="st2" d="M48 14H16c-2.2 0-4 1.8-4 4v7h40v-7c0-2.2-1.8-4-4-4z" id="path4933"/></g><g id="g4939"><path d="M48 12H16c-2.2 0-4 1.8-4 4v7h40v-7c0-2.2-1.8-4-4-4z" id="path4937" fill="#c75c5c"/></g><g class="st1" id="g4947"><path class="st2" d="M20 21c-1.1 0-2-.9-2-2v-7c0-1.1.9-2 2-2s2 .9 2 2v7c0 1.1-.9 2-2 2z" id="path4945"/></g><g class="st1" id="g4951"><path class="st2" d="M45 21c-1.1 0-2-.9-2-2v-7c0-1.1.9-2 2-2s2 .9 2 2v7c0 1.1-.9 2-2 2z" id="path4949"/></g><g id="g4955"><path class="st6" d="M20 19c-1.1 0-2-.9-2-2v-7c0-1.1.9-2 2-2s2 .9 2 2v7c0 1.1-.9 2-2 2z" id="path4953"/></g><g id="g4959"><path class="st6" d="M45 19c-1.1 0-2-.9-2-2v-7c0-1.1.9-2 2-2s2 .9 2 2v7c0 1.1-.9 2-2 2z" id="path4957"/></g></g></g></svg>